Patient4_TMGait_0pt5_01_right_31_EMG.mot
version=1
nRows=16
nColumns=33
inDegrees=no
endheader
time	1LAddLong	2LGlutMax	3LGlutMed	4LIliopsoas	5LSemiMemb	6LBicFemLong	7LRecFem	8LVastMed	9LVastLat	10LGasMed	11LTibAnt	12lTibPost	13LPeroneusLong	14LSol	15LExtDigLong	16LFlexDigLong	17RAddLong	18RGlutMax	19RGlutMed	20RIliopsoas	21RSemiMemb	22RBicFemLong	23RRecFem	24RVastMed	25RVastLat	26RGasMed	27RTibAnt	28RTibPost	29RPeroneusLong	30RSol	31RExtDigLong	32RFlexDigLong
42.138	-0.001373	-0.053253	0.13779	0.008392	0.013428	-0.50949	0.084229	0.012817	-0.058746	-0.061646	-0.010834	-0.003357	-0.55008	0.10407	0.002747	-0.000763	-0.018921	-0.22934	-0.74127	0.024414	0.12222	-0.26932	0.19577	-0.038757	0.008545	0.001984	0.006409	-0.000153	0.052338	0.058746	-0.001221	-0.00473
42.139	0.002136	-0.064087	0.069885	0.01236	0.012512	-0.33707	-0.00473	0.007782	-0.041809	-0.021973	-0.078888	-0.006866	-0.47882	0.04425	0.20584	0.005951	-0.023346	-0.18875	-0.36606	0.090179	0.15442	-0.24796	0.076141	-0.068359	0.007324	-0.003357	0.27969	-0.001831	-0.09552	0.25467	0.000305	-0.007324
42.14	0.005951	-0.037537	0.1207	-0.001068	0.015411	-0.17883	0.05127	-0.00351	-0.046387	-0.033875	-0.070038	-0.005646	0.2124	0.010223	0.019531	0.002136	-0.011139	-0.091858	0.033112	0.21103	0.01358	-0.2034	-0.000305	-0.07431	0.001831	-0.000916	0.59662	-0.002441	-0.34042	0.20462	-0.001221	-0.005341
42.141	0.007172	-0.015106	0.13596	-0.003662	0.023956	-0.14633	0.047302	0.002594	-0.091858	0.015411	-0.092926	-0.011139	0.30884	0.072479	-0.12207	-0.007629	-0.007324	-0.10956	0.46646	0.20889	-0.24262	-0.047607	0.06546	-0.12711	-0.023346	0.001221	0.85052	0.00351	-0.34866	0.045929	-0.00412	-0.010681
42.142	0.008545	0.025177	0.00824	-0.002441	0.046082	-0.073853	0.054169	0.001984	0.034943	0.021057	0.027008	-0.015259	0.22095	0.12177	-0.17288	0.001068	0.010986	-0.11673	0.38773	0.20737	-0.33371	0.11871	0.10254	-0.12192	-0.012512	0.005493	0.69443	0.00351	-0.22217	-0.022278	-0.001526	-0.004578
42.143	0.000916	0.007019	0.012207	-0.007782	0.024261	0.014038	0.069733	-0.000305	0.11749	0.022583	0.2179	-0.010834	-0.24277	0.12268	-0.097656	-0.011292	0.005951	-0.17303	-0.32211	0.04425	-0.20828	0.043182	0.13809	-0.053711	-0.007782	0.006256	0.44418	0.007172	-0.12711	-0.068054	-0.001373	-0.00061
42.144	0.000305	0.034027	0.055237	0.004578	0.015411	-0.045166	0.079498	0	0.13382	0.074615	0.21423	-0.010834	-0.17502	0.11185	-0.018921	-0.001526	-0.011292	-0.13428	-0.37186	-0.10666	0.21957	0.040741	0.041656	-0.061646	0.020447	0.00885	-0.19073	0.00351	-0.16129	-0.1062	-0.002747	-0.000763
42.145	0.010223	0.037384	0.042572	0.004578	0.025177	-0.093536	0.079498	0.001373	0.032806	0.23071	0.10834	-0.02182	0.33798	0.016479	-0.05661	-0.005646	0.006256	-0.17288	-0.23285	-0.15076	0.30991	-0.009766	0.084381	-0.069733	0.003967	0.002594	-0.62531	0.002747	-0.29862	-0.1236	0.002747	0.000153
42.146	0.015106	0.008698	-0.008545	0.02182	0.041504	-0.13092	0.079041	0.002441	-0.029907	0.092468	0.040894	-0.007172	0.16357	-0.018158	0.019379	0.002136	0.009766	-0.17609	-0.055237	-0.084076	0.32822	-0.048218	-0.028534	-0.066986	0.008545	0.004425	-0.57297	0.003357	-0.27191	-0.080109	-0.001221	0.000153
42.147	-0.039215	-0.02182	0.048676	0.02243	0.045624	-0.13977	0.10773	0.011292	-0.052948	-0.2211	-0.018768	0.001984	-0.11337	0.00061	0.077972	0.002899	0.028229	-0.22949	0.13092	0.017548	0.13931	-0.064545	-0.24246	-0.13962	0.029602	0.000763	-0.25635	0.002899	-0.21149	0.005951	-0.000305	-0.004883
42.148	0.10757	-0.0177	0.075226	0.010376	0.029297	-0.066986	0.10147	0.00885	-0.068817	0.033264	-0.036774	0.00351	0.048828	-0.12695	0.018921	-0.000763	0.042114	-0.19486	0.26977	0.062714	-0.000305	-0.046234	-0.30548	-0.13672	-0.002289	0.00061	-0.33661	0.001221	-0.13641	0.043793	0.001373	-0.003815
42.149	-0.04364	-0.005646	0.077667	0.002594	0.020752	0.016937	0.12344	0.009003	-0.082397	-0.004272	0.01236	-0.009918	-0.24155	0.021667	-0.001068	-0.002441	-0.010223	-0.1648	-0.2095	0.008392	-0.011749	-0.029297	-0.37323	-0.12222	-0.001373	0.004272	-0.39841	0.003815	0.10513	0.010223	0.003204	0.000305
42.15	0.03891	-0.000763	0.033875	0.012207	0.045471	0.046844	0.11459	0.011444	-0.10025	-0.13504	0.1004	-0.002441	-0.53146	0.081787	0.037689	0.000763	-0.001526	-0.16113	-0.63202	-0.031891	0.14206	0.050354	-0.39444	-0.15045	-0.007629	-0.005798	-0.082397	0.002747	0.24643	0.14725	-0.001984	0.000916
42.151	0.003662	0.014496	-0.028687	0.03479	0.060425	0.047607	0.11246	0.00824	-0.10361	-0.09552	0.13153	-0.007324	-0.077667	-0.22247	0.40512	-0.011444	0.004272	-0.17258	-0.45349	-0.037842	0.32227	0.12116	-0.30289	-0.076447	0.006561	-0.005646	0.0383	0.002594	0.60944	0.25574	-0.00061	-0.002594
42.152	0.00885	-0.025787	-0.066986	0.020752	0.05249	0.059357	0.10513	-0.005798	-0.12192	-0.11505	0.087433	-0.003967	0.020905	-0.24445	0.10635	-0.008392	-0.024261	-0.17349	-0.30441	-0.002899	0.077209	-0.090637	-0.15045	-0.068817	0.025177	-0.000458	-0.32654	0.001373	1.0863	0.2739	0.000153	-0.001831
42.153	0.005188	-0.031281	-0.058594	0.01709	0.037079	0.059357	0.15823	0.006866	-0.12741	-0.096588	0.000916	-0.00412	0.087433	-0.028687	1.0625	-0.001984	-0.008698	-0.19806	-0.10696	0.038757	-0.010376	-0.088501	-0.11917	-0.091705	0.005493	-0.003815	-0.22156	-0.003052	0.62439	0.062866	0.000305	0.00824
